<svg width="32" height="32" viewBox="0 0 32 32" fill="none" xmlns="http://www.w3.org/2000/svg">
<g clip-path="url(#clip0_17835_872)">
<rect width="32" height="32" rx="16" fill="#5664D2"/>
<path d="M16 31C24.2843 31 31 24.2843 31 16C31 7.71573 24.2843 1 16 1C7.71573 1 1 7.71573 1 16C1 24.2843 7.71573 31 16 31Z" stroke="white" stroke-width="3.5"/>
<path d="M29.75 14.4754C27.9804 13.8437 26.076 13.5 24.0922 13.5C15.4365 13.5 8.29408 20.0436 7.25 28.5" stroke="white" stroke-width="3.5"/>
<path d="M20.375 24.75C22.1009 24.75 23.5 23.3509 23.5 21.625C23.5 19.8991 22.1009 18.5 20.375 18.5C18.6491 18.5 17.25 19.8991 17.25 21.625C17.25 23.3509 18.6491 24.75 20.375 24.75Z" fill="white"/>
</g>
<defs>
<clipPath id="clip0_17835_872">
<rect width="32" height="32" rx="16" fill="white"/>
</clipPath>
</defs>
</svg>
